<?xml version="1.0" encoding="UTF-8"?>
<svg version="1.1" xmlns="http://www.w3.org/2000/svg" width="141" height="113">
<path d="M0 0 C0.96045731 -0.0066568 1.92091461 -0.0133136 2.91047668 -0.02017212 C4.93679908 -0.03026125 6.96315446 -0.0349903 8.98950195 -0.03466797 C12.0554223 -0.03902469 15.11988223 -0.07533925 18.18554688 -0.11328125 C35.24515167 -0.21279192 48.49904403 2.67702814 61.58203125 14.3984375 C73.18441594 26.8954639 76.46035939 41.96577839 76.14453125 58.5859375 C76.12592041 60.37620361 76.12592041 60.37620361 76.10693359 62.20263672 C76.05848556 65.91453884 75.98138265 69.62474775 75.89453125 73.3359375 C75.86842773 74.5537793 75.84232422 75.77162109 75.81542969 77.02636719 C75.73364969 80.50530699 75.63238266 83.98287731 75.51953125 87.4609375 C75.48891602 88.52731445 75.45830078 89.59369141 75.42675781 90.69238281 C75.38776367 91.67045898 75.34876953 92.64853516 75.30859375 93.65625 C75.2614624 94.94426514 75.2614624 94.94426514 75.21337891 96.25830078 C74.89453125 98.3359375 74.89453125 98.3359375 72.89453125 100.3359375 C69.92382813 100.65478516 69.92382813 100.65478516 66.11328125 100.75 C65.09115036 100.77918518 65.09115036 100.77918518 64.04837036 100.80895996 C61.83055167 100.86948854 59.6127107 100.91571474 57.39453125 100.9609375 C55.87677772 100.99802141 54.35903668 101.03561949 52.84130859 101.07373047 C48.52597708 101.17777525 44.21046664 101.2615201 39.89453125 101.3359375 C38.8571582 101.35398437 37.81978516 101.37203125 36.75097656 101.390625 C28.96493945 101.50491545 21.34493676 101.36366757 13.59765625 100.484375 C10.30986828 100.30383173 7.17212961 100.59337964 3.89453125 100.8984375 C-8.99369362 101.95139705 -20.98810386 98.50731288 -31.35546875 90.6484375 C-40.96301326 82.39797793 -49.18294846 71.27893683 -50.2824707 58.23632812 C-50.74448069 41.31682285 -48.70150719 27.87993815 -36.8515625 14.859375 C-26.33210476 4.76204638 -14.37966989 0.0351482 0 0 Z M6.68359375 33.5234375 C1.7140731 38.55806104 0.62674879 43.32446598 0.39453125 50.3359375 C0.62657098 57.34204034 1.69453202 62.15649502 6.71875 67.1484375 C8.39885553 68.62065979 10.10084506 70.00578819 11.89453125 71.3359375 C17.16181452 69.02152515 20.50843738 64.91011182 23.20703125 59.8984375 C25.43655197 51.58840574 25.26477197 44.73781311 21.14453125 37.0859375 C18.60696738 33.98447055 16.08787936 31.74868941 12.89453125 29.3359375 C10.53350754 29.3359375 8.34517673 32.04647485 6.68359375 33.5234375 Z " fill="#E52311" transform="translate(50.10546875,-0.3359375)"/>
<path d="M0 0 C0.90556641 -0.00773438 1.81113281 -0.01546875 2.74414062 -0.0234375 C3.60845703 -0.02085938 4.47277344 -0.01828125 5.36328125 -0.015625 C6.14614502 -0.01336914 6.92900879 -0.01111328 7.7355957 -0.00878906 C9.6875 0.25 9.6875 0.25 11.6875 2.25 C10.92566406 2.52972656 10.16382813 2.80945313 9.37890625 3.09765625 C-5.06145752 8.70433931 -14.53089133 17.40431529 -21.08984375 31.44921875 C-24.72758062 39.78230929 -26.03067548 49.05925431 -23.5546875 57.98046875 C-20.40936012 65.3732264 -16.45607585 69.67821207 -9.3125 73.25 C-2.21565479 75.42367876 4.94463994 74.95732478 11.578125 71.65234375 C16.63886735 68.28788726 21.19227811 63.23088757 22.6875 57.25 C24.18377902 49.76860491 23.57004786 43.69051851 19.875 36.9375 C17.69286481 34.25659106 15.48368379 32.26946607 12.6875 30.25 C13.6875 27.25 13.6875 27.25 15.921875 26.0859375 C23.10595367 23.91447869 30.05489275 24.65551981 36.69140625 28.0625 C42.97186404 31.79881931 47.44258918 36.2370521 49.6875 43.25 C50.62375724 51.89713058 50.41850659 60.26309236 46.6875 68.25 C46.29691406 69.19230469 45.90632813 70.13460937 45.50390625 71.10546875 C40.31244837 82.70903892 31.97903529 90.58647837 20.6875 96.25 C19.90890625 96.65089844 19.1303125 97.05179687 18.328125 97.46484375 C6.90728874 102.70872445 -5.58151771 102.07305555 -17.30859375 98.28125 C-29.67311296 93.61895996 -39.9567373 85.02653679 -45.8828125 73.0859375 C-51.10848179 60.81307991 -52.75173112 46.667474 -48.75 33.6875 C-43.0525307 19.59271531 -33.93663633 10.00386026 -20.26953125 3.44140625 C-13.34295667 0.65064635 -7.38073294 -0.06441367 0 0 Z " fill="#18268A" transform="translate(50.3125,-0.25)"/>
<path d="M0 0 C6.30274253 3.74957677 10.71220171 8.17268872 12.99609375 15.1875 C14.08078976 22.66579152 14.65758502 30.0088086 9.93359375 36.375 C4.8605876 41.74521257 -1.09343157 46.62982072 -8.65234375 47.48828125 C-14.57965907 47.51375682 -18.75406134 46.98741729 -24.00390625 44.1875 C-23.6171875 43.775 -23.23046875 43.3625 -22.83203125 42.9375 C-17.11436215 36.59711446 -12.85484609 29.98204971 -13.00390625 21.1875 C-13.80754886 13.92998909 -16.12364945 8.67499451 -21.75390625 3.8125 C-22.49640625 3.27625 -23.23890625 2.74 -24.00390625 2.1875 C-23.00390625 -0.8125 -23.00390625 -0.8125 -20.76953125 -1.9765625 C-13.58545258 -4.14802131 -6.6365135 -3.40698019 0 0 Z " fill="#4ABFEE" transform="translate(87.00390625,27.8125)"/>
</svg>
