<?xml version="1.0" encoding="utf-8"?>
<!-- Generator: Adobe Illustrator 16.0.0, SVG Export Plug-In . SVG Version: 6.00 Build 0)  -->
<!DOCTYPE svg PUBLIC "-//W3C//DTD SVG 1.1//EN" "http://www.w3.org/Graphics/SVG/1.1/DTD/svg11.dtd">
<svg version="1.1" id="Layer_2" xmlns="http://www.w3.org/2000/svg" xmlns:xlink="http://www.w3.org/1999/xlink" x="0px" y="0px"
	 width="350px" height="350px" viewBox="0 0 350 350" enable-background="new 0 0 350 350" xml:space="preserve">
<path fill="#BC0018" d="M174.687,3.233L14,89.144V259.75l160.85,85.224L334,259.75V88.457L174.687,3.233z M162,309.757L42,244.809
	V103.575l120-63.917V309.757z M306,244.809l-120,64.948V39.658l120,63.917V244.809z"/>
<polygon fill="#BC0018" points="63,247.902 63,99.451 87,86.393 87,161 116,161 116,70.585 145,56.152 145,293.262 116,277.457 
	116,189 87,189 87,264.397 "/>
<polygon fill="#BC0018" points="203,54.09 203,153.058 218,172.304 218,173.676 203,193.264 203,293.262 232,279.52 232,186 
	261,186 261,264.397 290,248.934 290,194.295 273,176.082 273,173.676 290,155.807 290,99.451 261,84.674 261,161 232,161 
	232,70.585 "/>
</svg>
